<svg width="521" height="521" viewBox="0 0 521 521" fill="none" xmlns="http://www.w3.org/2000/svg">
<rect width="521" height="521" rx="100" fill="#0C0D0D"/>
<path fill-rule="evenodd" clip-rule="evenodd" d="M193.151 92.1114C193.824 96.2448 194.497 96.8216 196.42 94.5146C198.054 92.4959 202.187 92.592 202.187 94.7068C202.187 95.572 200.457 98.5519 198.342 101.436C193.92 107.203 194.401 108.165 199.208 103.07C202.38 99.7054 205.936 98.9364 206.706 101.436C206.994 102.109 204.495 105.377 201.322 108.838C192.479 118.258 193.728 121.719 203.053 113.74C206.513 110.76 209.013 109.414 210.935 109.414C215.069 109.414 214.492 111.721 208.436 119.7C205.552 123.545 203.149 127.102 203.149 127.679C203.149 128.832 204.398 128.928 205.552 127.775C206.129 127.294 211.8 126.237 218.241 125.372C239.005 122.68 261.018 121.719 287.069 122.199C315.138 122.68 324.27 124.122 335.421 129.601C340.708 132.197 348.302 138.926 348.302 140.944C348.302 143.348 337.536 146.135 323.789 147.385C320.137 147.769 314.465 148.635 311.197 149.307C308.024 150.077 300.142 151.326 293.701 152.191C281.493 153.729 277.84 154.691 276.687 156.421C275.725 158.151 280.628 157.671 297.931 154.498C335.709 147.673 348.494 146.424 349.648 149.404C351.859 155.075 347.148 160.747 330.903 172.09C310.908 185.932 285.53 197.083 250.251 207.657C238.428 211.118 235.928 211.598 221.413 212.271C208.147 212.944 205.36 212.848 204.495 211.695C202.957 209.772 201.707 210.06 199.88 212.752C198.054 215.54 195.843 215.828 193.344 213.521C191.71 212.079 191.133 212.079 188.441 213.136C183.346 215.251 181.135 215.444 179.501 214.098C178.156 213.04 177.771 213.04 176.714 214.482C175.176 216.693 172.196 216.597 169.216 214.194C165.947 211.598 163.736 211.695 163.736 214.482C163.736 216.982 162.102 219 160.18 219C159.507 219 157.103 217.847 154.989 216.405L151.047 213.809L148.74 216.405C145.857 219.769 142.108 221.211 139.608 219.962C136.436 218.231 137.878 213.233 141.627 213.233C142.492 213.233 144.03 212.367 144.895 211.406C147.683 208.426 151.528 207.369 154.604 209.003C158.161 210.829 158.642 210.733 159.314 207.946C160.083 205.062 162.102 204.869 167.581 207.08C172.003 208.907 174.31 208.33 174.31 205.639C174.31 202.274 176.233 202.466 179.597 206.119C181.424 208.138 183.058 209.58 183.25 209.291C183.539 209.099 184.115 207.561 184.596 206.023C185.942 201.793 189.595 201.601 192.959 205.542C195.747 208.907 197.381 208.715 196.708 205.254C196.42 203.908 196.9 202.466 197.766 201.793C199.304 200.448 199.592 200.64 205.648 205.062C207.282 206.215 209.493 204.966 211.993 201.601C213.531 199.582 213.627 198.525 212.858 194.872C212.089 191.7 212.185 189.97 213.146 188.047C214.011 186.317 214.107 185.644 213.338 185.836C212.762 186.028 201.899 189.104 189.21 192.565C164.409 199.39 135.09 208.811 132.399 210.733C130.861 211.887 131.053 212.752 134.321 222.942C136.244 228.998 139.897 238.61 142.492 244.474L147.202 255.048L154.22 254.76C164.025 254.375 171.138 253.03 176.233 250.434L180.559 248.319L180.463 243.321C180.27 236.496 177.386 231.881 172.292 230.343C169.023 229.382 167.581 229.478 162.487 231.112C157.007 232.843 156.527 233.323 156.238 235.919C156.046 238.322 156.719 239.572 159.891 242.359C164.217 246.397 166.62 246.877 166.62 243.897C166.62 242.456 166.139 242.071 164.794 242.552C161.814 243.513 159.891 242.071 159.891 238.899C159.891 234.285 162.198 232.458 168.254 232.458H173.445L175.368 236.88C177.483 241.494 177.29 246.685 174.983 248.608C173.349 249.954 161.621 252.645 156.142 252.837C149.99 253.126 146.722 250.915 145.953 246.204C145.664 244.186 144.991 241.206 144.511 239.572C143.165 235.342 143.357 230.92 144.991 229.286C147.106 227.171 154.22 225.056 164.986 223.326C170.273 222.557 175.272 221.403 176.233 220.923C179.501 219.193 184.788 219.769 187.192 222.173C189.691 224.672 190.844 228.132 195.939 246.877C200.265 263.219 203.053 269.371 207.09 271.486C209.878 272.928 210.743 272.928 217.952 271.486C222.278 270.621 228.142 269.467 231.026 269.083C235.352 268.41 235.736 268.218 232.852 268.122C225.931 267.929 221.701 262.066 217.952 247.646L215.838 239.187L217.76 236.784C220.644 233.035 226.123 230.728 240.543 227.075C247.752 225.152 256.211 222.557 259.384 221.211C267.266 217.943 268.996 217.654 272.361 219C276.302 220.634 278.513 224.672 282.454 236.976C286.011 248.031 288.318 252.837 287.261 246.877C285.819 239.091 283.8 232.17 281.589 227.94C276.206 217.27 278.994 212.175 291.587 209.387C301.007 207.273 321.578 201.601 335.805 197.179C343.496 194.776 351.955 192.757 354.55 192.661L359.357 192.565L362.048 197.948C363.682 201.12 365.893 208.811 367.528 216.693C374.353 249.184 378.582 264.18 386.273 282.925C392.233 297.537 394.251 303.401 398.192 316.955C400.98 326.279 401.076 327.048 399.634 329.451C397.808 332.624 393.002 335.988 388.58 337.334C386.753 337.814 380.313 338.872 374.257 339.641C362.144 341.179 357.338 342.429 354.839 344.736C352.82 346.466 353.974 348.389 357.723 349.83C361.568 351.272 376.083 353.579 387.522 354.541C393.482 355.118 399.827 356.079 401.557 356.848C411.843 361.174 407.517 372.997 388.868 391.646C379.832 400.778 378.102 402.989 375.987 408.469C370.988 421.446 361.568 432.404 355.319 432.404C353.589 432.404 352.147 432.212 352.147 432.116C352.147 431.924 354.55 429.328 357.434 426.444C360.318 423.561 362.721 420.677 362.721 420.1C362.721 417.505 356.088 419.908 352.724 423.657C349.744 426.925 344.457 426.06 344.457 422.311C344.457 420.869 345.707 419.139 347.629 417.601C351.282 414.717 350.801 414.621 343.784 416.639C340.9 417.505 338.305 417.889 338.016 417.601C336.767 416.447 340.708 412.506 347.341 408.372C356.665 402.605 356.857 401.643 348.879 401.643C343.976 401.643 342.342 401.259 341.861 400.105C340.516 396.549 352.051 389.147 359.068 389.147C361.087 389.147 364.163 389.916 365.99 390.781C370.7 392.992 375.891 391.358 380.217 386.359C384.062 381.841 390.887 368.287 390.31 366.557C390.022 365.884 387.042 365.115 382.908 364.73C379.159 364.346 369.546 363 361.472 361.654C326.193 355.983 316.195 355.502 302.161 358.674L296.874 359.924L297.066 371.555C297.258 379.63 297.835 384.821 298.988 388.378L300.719 393.473L305.525 393.28C318.598 392.704 327.346 389.435 329.173 384.629C330.518 381.072 327.634 369.344 325.231 367.999C322.444 366.461 318.31 366.845 314.946 368.96C310.235 371.844 311.004 375.689 316.388 375.689C321.386 375.689 323.02 383.187 318.887 387.705C316.58 390.204 316.099 390.3 311.004 389.724C305.141 389.051 303.699 388.186 301.584 384.244C300.142 381.457 299.854 367.71 301.103 363.288C301.968 360.02 308.986 358.194 318.214 358.674C323.885 358.963 326.096 359.636 329.749 361.846C336.094 365.788 338.497 370.883 339.266 382.033C339.747 389.724 339.554 391.262 337.824 394.722C335.325 399.625 331.48 402.316 323.982 404.72C315.138 407.411 280.051 408.276 264.671 406.065C244.484 403.182 208.82 392.992 198.535 387.128C192.863 383.956 191.037 380.207 194.017 377.996C195.843 376.65 197.189 376.458 214.684 374.632C226.219 373.478 236.794 370.402 237.563 368.095C238.139 366.268 228.623 367.134 213.434 370.402C201.995 372.805 192.19 373.478 189.787 371.94C187.961 370.786 189.018 367.326 192.286 363C199.592 353.676 242.85 325.029 257.653 319.839C264.575 317.339 275.822 316.09 277.552 317.435C278.321 318.012 279.859 321.473 281.012 325.029C284.569 336.084 288.126 338.391 296.201 335.027C298.123 334.258 307.159 331.951 316.099 330.028C347.533 323.203 360.222 319.839 361.952 317.916C364.644 314.744 365.028 307.054 362.913 294.941C361.856 288.885 360.703 281.483 360.318 278.6C359.645 272.64 357.915 269.275 353.589 265.911C349.552 262.739 338.881 262.258 330.711 264.949C327.442 266.103 321.482 267.641 317.541 268.41C298.508 272.351 294.566 275.716 297.546 285.713C298.412 288.405 299.565 292.73 300.238 295.422C302.161 303.977 304.948 305.131 314.946 301.67C317.926 300.613 321.194 299.748 322.251 299.748C323.213 299.748 326.865 298.883 330.326 297.825C340.323 294.749 342.534 290.135 337.92 282.156C335.998 278.888 332.345 278.696 326.193 281.58C321.098 283.983 322.54 285.136 328.692 283.406C332.441 282.349 333.21 282.349 334.844 283.887C337.343 286.098 337.343 291.192 334.94 293.403C333.114 295.038 331.864 295.326 322.059 296.479C318.022 296.96 317.06 296.768 314.946 294.845C311.293 291.385 308.89 285.905 308.89 281.195C308.89 281.017 308.889 280.847 308.888 280.683C308.883 279.429 308.879 278.571 309.211 277.872C309.929 276.355 312.222 275.586 319.485 273.147L319.486 273.147L320.425 272.832C328.307 270.14 340.9 266.968 342.63 267.257C346.572 267.833 353.012 288.02 353.108 299.556C353.108 304.458 352.916 304.746 349.936 305.996C343.111 308.784 300.046 318.493 297.835 317.628C296.008 316.955 292.932 308.015 288.991 292.538C284.858 276.196 282.935 272.159 278.609 270.333C274.572 268.698 269.862 269.467 256.5 274.082C251.213 275.908 241.312 278.984 234.39 280.907C227.565 282.925 221.221 285.136 220.452 285.905C218.145 288.212 221.99 287.636 233.045 283.887C245.83 279.465 250.54 278.6 254.673 279.657C257.365 280.426 258.038 281.195 258.903 284.656C259.48 286.867 261.018 291.961 262.364 295.903C265.247 304.843 265.44 311.475 262.844 314.071C261.787 315.128 259.095 316.186 256.788 316.474C254.481 316.666 245.926 317.82 237.755 318.973L237.755 318.973C206.321 323.395 206.321 323.395 204.014 321.28C200.553 318.204 198.246 312.437 195.843 300.997C194.593 294.941 192.863 288.405 191.998 286.482C191.229 284.56 189.499 278.984 188.153 274.274C183.827 258.797 182.674 258.221 166.524 262.162C153.066 265.526 148.933 267.449 157.007 266.68C157.467 266.618 157.973 266.552 158.511 266.482L158.544 266.478L158.546 266.477C161.377 266.107 165.071 265.625 167.485 265.142C174.983 263.796 178.636 265.526 180.078 271.102C180.655 273.409 181.616 276.485 182.193 278.119C186.038 289.366 182.193 293.403 163.063 297.825C147.971 301.382 145.087 299.844 143.453 287.155C141.338 271.39 140.762 269.083 135.379 257.836C132.414 251.814 128.467 243.382 126.292 238.734L126.054 238.226C121.728 228.998 113.75 209.099 113.75 207.561C113.75 206.984 116.057 202.947 118.845 198.621C125.093 188.912 133.744 174.109 137.109 167.572C138.455 164.88 143.646 156.902 148.644 149.788C160.083 133.446 162.294 128.928 168.543 109.607C171.234 101.051 173.926 93.8416 174.407 93.5533C174.791 93.2649 176.329 93.6494 177.579 94.5146C180.366 96.341 182.001 95.7642 186.23 91.2462C190.268 87.0166 192.382 87.305 193.151 92.1114ZM253.808 133.158C250.636 133.543 249.867 134.023 248.713 136.907C246.983 140.944 248.329 147.289 251.213 148.827C253.52 150.077 261.498 148.923 263.325 147.193C265.151 145.366 265.055 137.292 263.133 134.6C261.691 132.485 261.21 132.389 253.808 133.158ZM260.825 138.733C262.364 140.56 261.787 143.059 259.384 144.597C257.653 145.751 257.076 145.655 255.25 144.405C253.231 143.059 252.366 139.31 253.808 137.964C254.962 136.811 259.576 137.292 260.825 138.733ZM157.392 162.862C164.121 144.405 166.812 141.521 179.501 138.733C182.673 138.061 187.191 137.388 189.499 137.388C193.44 137.292 193.536 137.388 192.478 139.406C190.556 142.963 191.902 154.691 194.786 159.689C198.438 165.842 201.322 167.476 207.763 166.803C214.876 166.034 213.05 167.38 203.053 170.263C198.535 171.609 191.902 173.724 188.153 175.07C161.429 184.971 154.604 187.278 152.97 187.278C151.143 187.278 151.047 186.894 151.528 182.183C151.912 179.396 154.508 170.744 157.392 162.862ZM222.278 138.253C207.859 139.695 204.398 142.29 205.552 150.749C206.225 155.94 207.763 157.478 212.185 157.478C215.838 157.478 225.45 153.633 224.97 152.384C224.681 151.711 223.912 151.422 223.239 151.615C215.741 154.018 207.571 151.807 208.147 147.577C208.34 145.943 209.685 145.174 214.684 143.828C229.199 139.791 233.429 140.079 234.486 144.79C234.871 146.231 235.544 147.866 236.024 148.539C236.505 149.115 237.178 152.095 237.466 154.979C238.043 160.266 239.773 162.189 241.023 158.824C241.984 156.229 241.696 153.249 239.293 145.366L237.082 137.772L233.333 137.676C231.314 137.58 226.316 137.868 222.278 138.253ZM225.931 164.015C220.644 164.88 219.202 163.919 224.297 162.958C227.757 162.381 232.372 162.189 231.891 162.765C231.603 162.958 228.911 163.534 225.931 164.015ZM264.478 171.032C262.267 172.186 260.633 173.82 260.249 175.358C259.672 177.569 260.056 178.723 263.709 186.317C264.19 187.374 265.92 187.759 269.765 187.759C274.091 187.759 275.629 187.278 277.552 185.452C278.898 184.106 280.051 182.376 280.051 181.607C280.051 178.723 277.071 171.417 275.533 170.167C273.226 168.437 268.612 168.822 264.478 171.032ZM271.784 175.839C274.956 177.281 275.629 179.492 273.611 181.703C271.303 184.298 267.362 183.625 266.209 180.453C264.478 175.55 266.785 173.628 271.784 175.839ZM223.143 182.279C225.643 181.414 229.392 180.068 231.506 179.203C236.217 177.377 236.986 177.377 240.158 178.819C243.715 180.453 243.138 181.126 238.428 180.741C235.64 180.453 231.699 181.222 226.988 182.856C219.779 185.356 216.607 186.028 217.952 184.587C218.337 184.202 220.74 183.241 223.143 182.28L223.143 182.279ZM244.003 182.952C244.388 184.01 245.157 187.663 245.733 191.027C246.695 197.083 246.695 197.179 244.099 199.486C241.984 201.217 240.35 201.697 235.832 201.697C229.103 201.697 227.181 201.121 227.181 198.813C227.181 196.795 229.584 194.584 233.91 192.757L233.91 192.757L233.911 192.757C235.693 191.971 236.503 191.613 236.465 191.435C236.434 191.287 235.814 191.263 234.679 191.219C230.449 191.123 222.567 193.046 222.086 194.392C221.221 196.602 222.567 200.544 224.97 202.851C226.796 204.581 228.334 205.062 231.987 204.966C237.659 204.87 248.04 201.89 248.713 200.159C249.579 197.852 247.271 186.797 245.253 183.914C244.195 182.279 243.619 181.895 244.003 182.952ZM292.74 218.904C294.086 218.039 314.561 213.137 325.712 210.926C329.461 210.157 333.018 209.58 333.691 209.484C337.151 209.195 340.612 213.425 342.727 220.346C344.168 225.249 346.476 246.205 345.707 246.877C344.168 248.319 311.485 257.836 293.797 261.97C291.202 262.546 288.799 259.278 288.03 253.991L287.549 250.242L290.145 253.895C292.644 257.452 292.932 257.644 297.162 257.163C301.295 256.682 310.043 254.664 323.02 251.107C325.712 250.338 329.365 248.608 330.999 247.166C333.787 244.859 333.979 244.282 333.594 240.245C333.018 234.861 327.827 217.558 326.096 215.54C325.231 214.482 323.789 214.194 321.482 214.482C315.138 215.444 300.238 219.769 297.739 221.404C295.335 222.942 295.239 223.326 295.816 228.421C296.585 235.246 295.335 233.996 293.124 225.825C291.683 220.731 291.683 219.577 292.74 218.904ZM311.197 225.825C309.562 226.306 307.64 227.363 306.871 228.229C305.141 230.343 307.159 231.497 312.927 231.497C318.118 231.497 318.887 232.362 318.118 236.688C317.06 242.071 308.024 244.859 301.776 241.59C298.219 239.764 297.643 240.341 299.661 243.513C300.719 245.147 301.872 245.82 302.93 245.532C303.795 245.243 307.351 244.57 310.812 243.994C317.733 242.744 321.867 240.917 322.732 238.707C323.501 236.688 321.386 228.613 319.56 226.402C318.118 224.672 315.811 224.48 311.197 225.825ZM230.353 243.609C231.122 241.687 235.736 239.764 250.732 235.342C257.653 233.323 264.382 231.593 265.824 231.593C268.804 231.497 271.592 234.861 273.803 241.206C275.341 245.532 275.725 255.241 274.38 257.259C273.995 258.028 270.631 259.374 266.978 260.431C249.098 265.43 238.428 268.026 237.37 267.737C235.159 266.968 243.33 264.084 254.577 261.777C267.843 259.086 269.477 257.932 269.477 251.107C269.477 245.724 267.362 240.629 264.575 239.187C263.325 238.418 260.729 238.226 258.038 238.61C242.561 240.629 241.119 241.302 242.081 245.916C243.234 250.723 245.926 251.395 255.346 249.185C258.807 248.415 258.807 250.434 255.346 251.78C250.444 253.606 236.89 254.952 234.39 253.799C231.891 252.645 229.392 246.205 230.353 243.609ZM163.736 275.043C163.736 275.716 164.601 276.773 165.659 277.446C169.985 280.138 166.236 285.713 160.179 285.713C157.488 285.713 156.238 285.04 154.508 282.829L152.201 280.042V282.637C152.201 284.175 153.162 286.29 154.22 287.347C155.95 289.078 157.103 289.27 160.756 288.885C163.159 288.693 166.812 287.732 168.831 286.867C172.868 285.136 173.349 283.022 170.946 277.254C169.696 274.37 169.023 273.793 166.62 273.793C164.986 273.793 163.736 274.274 163.736 275.043ZM223.336 298.018C223.336 296.96 229.68 294.076 234.006 293.019C235.832 292.634 239.773 292.25 242.85 292.154C248.04 292.058 248.425 292.25 250.251 295.134C251.309 296.864 252.174 299.94 252.174 301.863C252.174 306.765 249.194 308.207 236.217 309.457C230.641 309.937 224.297 310.995 222.086 311.764C213.146 314.936 210.839 312.821 210.839 301.478C210.839 292.827 212.281 290.808 213.242 298.018C213.627 300.805 214.588 304.554 215.261 306.381L216.607 309.649L227.95 308.976C243.619 308.015 247.656 305.9 246.022 299.171C244.964 295.326 242.561 294.749 234.775 296.864C227.085 298.883 223.336 299.267 223.336 298.018ZM256.019 333.008C250.348 334.546 245.445 338.391 245.445 341.275C245.445 342.333 247.368 345.12 249.675 347.62C253.52 351.657 254.385 352.138 258.134 352.041C263.709 351.945 268.516 349.35 268.516 346.562C268.516 343.678 265.728 334.258 264.478 332.624C263.229 331.182 262.652 331.182 256.019 333.008ZM260.922 338.199C263.133 339.449 263.229 341.756 261.114 344.159C259.191 346.274 255.25 346.37 252.943 344.255C251.213 342.717 250.636 339.16 251.886 337.911C252.847 336.853 258.807 337.142 260.922 338.199ZM259.384 377.515C258.518 374.151 261.498 370.786 266.209 369.921C268.227 369.441 271.688 369.248 273.803 369.248C277.84 369.441 278.225 370.113 279.763 379.15C280.724 385.013 273.034 390.493 266.209 388.762C263.902 388.186 260.633 382.899 259.384 377.515ZM273.322 377.9C273.322 376.746 272.457 375.304 271.496 374.728C266.689 372.228 263.709 374.824 265.536 379.919C267.266 384.34 273.322 382.802 273.322 377.9Z" fill="#F2F3F3"/>
</svg>
